<svg xmlns="http://www.w3.org/2000/svg" viewBox="0 0 800 600" width="100%" height="100%">
  <defs>
    <linearGradient id="bg" x1="0%" y1="0%" x2="100%" y2="100%">
      <stop offset="0%" stop-color="#e0e7ff" />
      <stop offset="100%" stop-color="#f3e8ff" />
    </linearGradient>
    <filter id="glass">
      <feGaussianBlur stdDeviation="15" result="blur" />
      <feColorMatrix type="matrix" values="1 0 0 0 0  0 1 0 0 0  0 0 1 0 0  0 0 0 18 -7" result="glow" />
      <feBlend in="SourceGraphic" in2="glow" mode="normal" />
    </filter>
    <filter id="shadow">
      <feDropShadow dx="0" dy="20" stdDeviation="25" flood-color="#4f46e5" flood-opacity="0.3"/>
    </filter>
  </defs>

  <!-- Background -->
  <rect width="800" height="600" fill="url(#bg)"/>

  <!-- Glass Card -->
  <rect x="150" y="100" width="500" height="400" rx="40" fill="rgba(255,255,255,0.4)" stroke="rgba(255,255,255,0.8)" stroke-width="4" filter="url(#shadow)" />
  
  <!-- "RED" written in Blue -->
  <g transform="translate(400, 300)">
    <text x="0" y="0" font-family="system-ui, -apple-system, sans-serif" font-weight="900" font-size="140" fill="#3b82f6" text-anchor="middle" dominant-baseline="middle" letter-spacing="-2">
      RED
    </text>
    
    <!-- Abstract paint swoosh in blue -->
    <path d="M-150,60 Q0,100 150,40" fill="none" stroke="#3b82f6" stroke-width="20" stroke-linecap="round" opacity="0.8"/>
  </g>

  <!-- Floating Brain Icon -->
  <g transform="translate(400, 130) scale(3)" opacity="0.9">
    <path d="M9.5 2A2.5 2.5 0 0 1 12 4.5v15a2.5 2.5 0 0 1-4.96.44 2.5 2.5 0 0 1-2.96-3.08 3 3 0 0 1-.34-5.58 2.5 2.5 0 0 1 1.32-4.24 2.5 2.5 0 0 1 1.98-3A2.5 2.5 0 0 1 9.5 2Z" fill="none" stroke="#6366f1" stroke-width="1.5" stroke-linecap="round" stroke-linejoin="round"/>
    <path d="M14.5 2A2.5 2.5 0 0 0 12 4.5v15a2.5 2.5 0 0 0 4.96.44 2.5 2.5 0 0 0 2.96-3.08 3 3 0 0 0 .34-5.58 2.5 2.5 0 0 0-1.32-4.24 2.5 2.5 0 0 0-1.98-3A2.5 2.5 0 0 0 14.5 2Z" fill="none" stroke="#6366f1" stroke-width="1.5" stroke-linecap="round" stroke-linejoin="round"/>
  </g>
</svg>
